<?xml version="1.0" encoding="UTF-8" standalone="no"?>
<!-- Uploaded to: SVG Repo, www.svgrepo.com, Generator: SVG Repo Mixer Tools -->

<svg
   fill="#000000"
   width="800px"
   height="800px"
   viewBox="0 0 24 24"
   role="img"
   version="1.1"
   id="svg1"
   sodipodi:docname="fortinet.svg"
   inkscape:version="1.4.4 (dcaf3e7d9e, 2026-05-05)"
   xmlns:inkscape="http://www.inkscape.org/namespaces/inkscape"
   xmlns:sodipodi="http://sodipodi.sourceforge.net/DTD/sodipodi-0.dtd"
   xmlns="http://www.w3.org/2000/svg"
   xmlns:svg="http://www.w3.org/2000/svg">
  <defs
     id="defs1" />
  <sodipodi:namedview
     id="namedview1"
     pagecolor="#505050"
     bordercolor="#ffffff"
     borderopacity="1"
     inkscape:showpageshadow="0"
     inkscape:pageopacity="0"
     inkscape:pagecheckerboard="1"
     inkscape:deskcolor="#505050"
     inkscape:zoom="1.05375"
     inkscape:cx="400"
     inkscape:cy="400"
     inkscape:window-width="1920"
     inkscape:window-height="1052"
     inkscape:window-x="0"
     inkscape:window-y="0"
     inkscape:window-maximized="1"
     inkscape:current-layer="svg1" />
  <path
     d="M0 9.785h6.788v4.454H0zm8.666-6.33h6.668v4.453H8.666zm0 12.637h6.668v4.454H8.666zm8.522-6.307H24v4.454h-6.812zM2.792 3.455C1.372 3.814.265 5.404 0 7.425v.506h6.788V3.454zM0 16.091v.554c.24 1.926 1.276 3.466 2.624 3.9h4.188v-4.454zm24-8.184v-.506c-.265-1.998-1.372-3.587-2.792-3.972h-4.02v4.454H24zM21.376 20.57c1.324-.458 2.36-1.974 2.624-3.9v-.554h-6.812v4.454z"
     id="path1"
     style="fill:#ff0000" />
</svg>
