<?xml version="1.0" encoding="UTF-8" standalone="no"?>
<!-- Uploaded to: SVG Repo, www.svgrepo.com, Generator: SVG Repo Mixer Tools -->

<svg
   width="800px"
   height="800px"
   viewBox="0 0 24 24"
   fill="none"
   version="1.1"
   id="svg1"
   sodipodi:docname="network.svg"
   inkscape:version="1.4.4 (dcaf3e7d9e, 2026-05-05)"
   xmlns:inkscape="http://www.inkscape.org/namespaces/inkscape"
   xmlns:sodipodi="http://sodipodi.sourceforge.net/DTD/sodipodi-0.dtd"
   xmlns="http://www.w3.org/2000/svg"
   xmlns:svg="http://www.w3.org/2000/svg">
  <defs
     id="defs1" />
  <sodipodi:namedview
     id="namedview1"
     pagecolor="#505050"
     bordercolor="#ffffff"
     borderopacity="1"
     inkscape:showpageshadow="0"
     inkscape:pageopacity="0"
     inkscape:pagecheckerboard="1"
     inkscape:deskcolor="#505050"
     inkscape:zoom="1.05375"
     inkscape:cx="400"
     inkscape:cy="400"
     inkscape:window-width="1920"
     inkscape:window-height="1052"
     inkscape:window-x="0"
     inkscape:window-y="0"
     inkscape:window-maximized="1"
     inkscape:current-layer="svg1" />
  <path
     d="M 3,12 H 14.86121 21 M 12,8 v 4 m -5.5,0 v 4 m 11,-4 v 4 M 10.1,8 h 3.8 C 14.4601,8 14.7401,8 14.954,7.89101 15.1422,7.79513 15.2951,7.64215 15.391,7.45399 15.5,7.24008 15.5,6.96005 15.5,6.4 V 4.6 c 0,-0.56005 0,-0.84008 -0.109,-1.05399 C 15.2951,3.35785 15.1422,3.20487 14.954,3.10899 14.7401,3 14.4601,3 13.9,3 H 10.1 C 9.53995,3 9.25992,3 9.04601,3.10899 8.85785,3.20487 8.70487,3.35785 8.60899,3.54601 8.5,3.75992 8.5,4.03995 8.5,4.6 v 1.8 c 0,0.56005 0,0.84008 0.10899,1.05399 C 8.70487,7.64215 8.85785,7.79513 9.04601,7.89101 9.25992,8 9.53995,8 10.1,8 Z m 5.5,13 h 3.8 c 0.5601,0 0.8401,0 1.054,-0.109 0.1882,-0.0959 0.3411,-0.2488 0.437,-0.437 C 21,20.2401 21,19.9601 21,19.4 V 17.6 C 21,17.0399 21,16.7599 20.891,16.546 20.7951,16.3578 20.6422,16.2049 20.454,16.109 20.2401,16 19.9601,16 19.4,16 h -3.8 c -0.5601,0 -0.8401,0 -1.054,0.109 -0.1882,0.0959 -0.3411,0.2488 -0.437,0.437 C 14,16.7599 14,17.0399 14,17.6 v 1.8 c 0,0.5601 0,0.8401 0.109,1.054 0.0959,0.1882 0.2488,0.3411 0.437,0.437 C 14.7599,21 15.0399,21 15.6,21 Z m -11,0 H 8.4 C 8.96005,21 9.24008,21 9.45399,20.891 9.64215,20.7951 9.79513,20.6422 9.89101,20.454 10,20.2401 10,19.9601 10,19.4 V 17.6 C 10,17.0399 10,16.7599 9.89101,16.546 9.79513,16.3578 9.64215,16.2049 9.45399,16.109 9.24008,16 8.96005,16 8.4,16 H 4.6 C 4.03995,16 3.75992,16 3.54601,16.109 3.35785,16.2049 3.20487,16.3578 3.10899,16.546 3,16.7599 3,17.0399 3,17.6 v 1.8 c 0,0.5601 0,0.8401 0.10899,1.054 0.09588,0.1882 0.24886,0.3411 0.43702,0.437 C 3.75992,21 4.03995,21 4.6,21 Z"
     stroke="#000000"
     stroke-width="2"
     stroke-linecap="round"
     stroke-linejoin="round"
     id="path1"
     sodipodi:nodetypes="cccccccccssccssccssccssccssssssssssssssssssssccssccssccssccs"
     style="stroke:#00e5c8;stroke-opacity:1" />
</svg>
